<svg width="45" height="45" viewBox="0 0 45 45" fill="none" xmlns="http://www.w3.org/2000/svg">
<g filter="url(#filter0_d)">
<path d="M31.0001 31.8008L30.4001 32.1008C27.9001 33.6008 25.1001 34.3008 22.3001 34.3008C13.5001 34.3008 6.30014 27.1008 6.30014 18.3008C6.30014 14.1008 8.00014 10.0008 11.0001 7.00078C14.0001 4.00078 18.0001 2.30078 22.3001 2.30078C31.1001 2.30078 38.3001 9.50078 38.2001 18.4008C38.2001 21.4008 37.3001 24.3008 35.8001 26.8008L35.4001 27.4008L37.0001 33.3008L31.0001 31.8008Z" fill="#00E676"/>
<path d="M9.30019 5.4C12.7002 1.9 17.4002 0 22.2002 0C32.4002 0 40.6002 8.3 40.5002 18.4C40.5002 21.6 39.6002 24.7 38.1002 27.5L40.7002 37L31.0002 34.5C28.3002 36 25.3002 36.7 22.3002 36.7C12.2002 36.7 4.00019 28.4 4.00019 18.3C4.00019 13.4 5.90019 8.8 9.30019 5.4ZM22.2002 33.6C24.9002 33.6 27.6002 32.9 29.9002 31.5L30.5002 31.2L36.3002 32.7L34.8002 27L35.2002 26.4C39.6002 19.3 37.5002 9.9 30.3002 5.5C23.1002 1.1 13.8002 3.2 9.4002 10.4C5.0002 17.6 7.1002 26.9 14.3002 31.3C16.6002 32.8 19.4002 33.6 22.2002 33.6ZM13.4002 22.5L14.5002 22C14.5002 22 16.1002 21.3 17.1002 20.8C17.2002 20.8 17.3002 20.7 17.4002 20.7C17.7002 20.7 17.9002 20.8 18.1002 20.9C18.1002 20.9 18.2002 21 19.6002 22.6C19.7002 22.8 19.9002 22.9 20.1002 22.9H20.2002C20.3002 22.9 20.5002 22.8 20.6002 22.7L21.1002 22.5C22.2002 22 23.2002 21.4 24.0002 20.6C24.2002 20.4 24.5002 20.2 24.7002 20C25.4002 19.3 26.1002 18.5 26.6002 17.6L26.7002 17.4C26.8002 17.3 26.8002 17.2 26.9002 17C26.9002 16.8 26.9002 16.6 26.8002 16.5C26.8002 16.5 26.4002 16 26.1002 15.7C25.9002 15.5 25.8002 15.2 25.6002 15C25.4002 14.7 25.3002 14.3 25.4002 14C25.5002 13.5 26.7002 10.8 27.0002 10.2C27.2002 9.9 27.4002 9.8 27.7002 9.7H28.0002C28.2002 9.7 28.5002 9.7 28.8002 9.7C29.0002 9.7 29.2002 9.8 29.4002 9.8L29.5002 9.9C29.7002 10 29.9002 10.2 30.1002 10.3C30.3002 10.5 30.4002 10.7 30.6002 10.9C31.3002 11.8 31.7002 12.9 31.7002 14C31.7002 14.8 31.5002 15.6 31.2002 16.3L31.1002 16.6C30.2002 18.5 29.0002 20.2 27.4002 21.7L27.0002 22.1C26.7002 22.4 26.4002 22.6 26.2002 22.9C24.1002 24.7 21.7002 26 19.0002 26.7C18.7002 26.8 18.3002 26.8 18.0002 26.9C17.7002 26.9 17.3002 26.9 17.0002 26.9C16.5002 26.9 15.9002 26.7 15.5002 26.5C15.2002 26.3 15.0002 26.3 14.8002 26.1L14.6002 25.9C14.4002 25.7 14.2002 25.6 14.0002 25.4C13.8002 25.2 13.6002 25 13.5002 24.8C13.3002 24.4 13.2002 23.9 13.1002 23.4C13.1002 23.2 13.1002 22.9 13.1002 22.7C13.1002 22.7 13.2002 22.6 13.4002 22.5Z" fill="white"/>
</g>
<defs>
<filter id="filter0_d" x="0" y="0" width="44.7" height="45" filterUnits="userSpaceOnUse" color-interpolation-filters="sRGB">
<feFlood flood-opacity="0" result="BackgroundImageFix"/>
<feColorMatrix in="SourceAlpha" type="matrix" values="0 0 0 0 0 0 0 0 0 0 0 0 0 0 0 0 0 0 127 0"/>
<feOffset dy="4"/>
<feGaussianBlur stdDeviation="2"/>
<feColorMatrix type="matrix" values="0 0 0 0 0 0 0 0 0 0 0 0 0 0 0 0 0 0 0.15 0"/>
<feBlend mode="normal" in2="BackgroundImageFix" result="effect1_dropShadow"/>
<feBlend mode="normal" in="SourceGraphic" in2="effect1_dropShadow" result="shape"/>
</filter>
</defs>
</svg>
